HIERARCHY
ROOT Hips
{
  OFFSET 0.0 0.0 0.0
  CHANNELS 6 Xposition Yposition Zposition Zrotation Xrotation Yrotation
  JOINT LeftUpLeg
  {
    OFFSET 8.931 -3.1 1.779
    CHANNELS 3 Zrotation Xrotation Yrotation
    JOINT LeftLeg
    {
      OFFSET 0.007 -40.402 -0.173
      CHANNELS 3 Zrotation Xrotation Yrotation
      JOINT LeftFoot
      {
        OFFSET -1.482 -46.019 -2.403
        CHANNELS 3 Zrotation Xrotation Yrotation
        End Site
        {
          OFFSET -0.04 -4.41509 8.4991
        }
      }
    }
  }
  JOINT Spine
  {
    OFFSET 0 11.8905 0
    CHANNELS 3 Zrotation Xrotation Yrotation
    JOINT Spine1
    {
      OFFSET 0 25.6574 0.127663
      CHANNELS 3 Zrotation Xrotation Yrotation
      End Site
      {
        OFFSET -0.29 21.50836 2.525291
      }
      JOINT RightArm
      {
        OFFSET -16.2727 -5.36563199 0.102123
        CHANNELS 3 Zrotation Xrotation Yrotation
        JOINT RightForeArm
        {
          OFFSET -31.364 0.099144 -1.42434
          CHANNELS 3 Zrotation Xrotation Yrotation
          End Site
          {
            OFFSET -27.0902 0.085362 1.02216
          }
        }
      }
      JOINT LeftArm
      {
        OFFSET 16.2727 -5.365632 0.102123
        CHANNELS 3 Zrotation Xrotation Yrotation
        JOINT LeftForeArm
        {
          OFFSET 31.364 0.099144 -1.42434
          CHANNELS 3 Zrotation Xrotation Yrotation
          End Site
          {
            OFFSET 27.0902 0.085362 1.02216
          }
        }
      }
    }
  }
  JOINT RightUpLeg
  {
    OFFSET -8.931 -3.1 1.779
    CHANNELS 3 Zrotation Xrotation Yrotation
    JOINT RightLeg
    {
      OFFSET -0.007 -40.402 -0.173
      CHANNELS 3 Zrotation Xrotation Yrotation
      JOINT RightFoot
      {
        OFFSET 1.482 -46.019 -2.403
        CHANNELS 3 Zrotation Xrotation Yrotation
        End Site
        {
          OFFSET 0.04 -4.41509 8.4991
        }
      }
    }
  }
}
MOTION
Frames: 5
Frame Time: 0.033333
4.31435 98.2815 -20.4609 -2.520029883901116 -0.13984798985387886 14.578200377671598 4.419050003841386 3.4858299450417314 -7.421780028557881 -0.057014797323376484 13.59940011866292 0.29257200687114243 -4.420080081745589 -11.549999296879657 -16.585900333250997 0.48045199472224015 4.821340035105498 13.468299760186403 -0.3951460269182485 -4.53565029759679 3.8379298252938856 25.870700689068126 4.526299768623042 64.43080002575275 -26.55000056806633 -24.93300109339 59.17460062921275 -34.1868999658547 -3.7570501402371796 -56.51769802321281 25.489198765429773 -22.187599726314208 -54.7408004049719 4.090370201922972 -6.069049964379455 -3.1613699193699154 0.07862410179469523 24.85989928625065 -0.3035609808328996 -0.7204479801269748 -12.09329986421915 -8.648190012905154
4.17018 98.7666 -20.2959 -2.545469990681886 0.18500099641487122 15.518500567876206 4.635300196266337 3.5803200626801575 -8.199540499536404 -0.053221897894743866 12.964599775880997 0.27061599025816624 -3.9888501120813102 -9.997530595707962 -16.57599997404906 0.1303460094394143 4.976810081653798 13.76989956959301 -0.749025011366632 -4.707890166104764 3.9046996201858146 24.848398955235638 -0.41793599362062744 67.57789847829532 -25.41860022262123 -22.024300148542956 54.473200423479966 -32.4333001228727 -7.998859296437674 -61.41850218666953 24.16479947215491 -19.407200469931265 -50.13259813046394 4.181669767445356 -6.433090082517849 -3.453540012297085 0.07903129846310435 24.817801415301275 -0.2810829883569463 -0.28167798854710435 -9.49922987594145 -8.33984966056139
3.90522 99.5639 -20.2846 -3.1800302096258015 0.7059850011986198 15.909399124265205 5.360179635143328 2.90278002461029 -8.78457010761009 -0.051359400690605926 12.475000717117082 0.2431710095125856 -3.2597799252616935 -7.785940101893574 -15.905999397605832 0.3872409900884579 5.016820049151264 14.784900684976401 -1.425899959766069 -5.3198098020539675 4.163569766144821 24.349600485433363 -4.4074100808352155 69.57809888616605 -24.131500592403807 -19.345001352254545 50.0273995568674 -32.19949933248858 -11.117899331869847 -66.06240244487456 22.810700808821544 -17.014201005534986 -46.016398287534095 4.847030084121209 -7.812799820804649 -3.1783901104513523 0.0844963035727608 25.474300415302682 -0.2792360091558396 -0.18812500754735867 -8.42529959594648 -9.004059944135744
3.74905 100.524 -20.2805 -3.066589945578587 1.3636599676760337 16.689299152001233 4.976990227893157 1.8209499905099673 -10.281699762352696 -0.05704459935971596 13.016900241903077 0.22388500989570256 -2.464980053294694 -5.4825800401645415 -14.975500528860191 -0.5635750233953251 5.536869798782388 14.684899885338245 -1.3709600525166021 -5.362859630618912 4.123269942494454 24.79789995160715 -8.078360137055684 72.76070066201436 -22.735500426059705 -16.903200186238525 45.82589748139327 -31.346801441031264 -14.615600786019295 -69.21469867137553 21.615699449372578 -15.186199911924039 -42.75180009069978 4.684670084247658 -8.851260074666095 -3.459059872363513 0.08258389729590351 25.255899993949647 -0.2518109853692402 0.09986150113168545 -5.662879958779953 -11.257800389091926
3.50832 101.606 -20.2513 -3.7637898294006895 1.7395699940965579 17.296099988054337 5.589689786068212 1.1464900475906585 -11.066399705527951 -0.058077898925411785 12.712099635096672 0.18476200649498686 -1.4176800405433703 -1.548390011020139 -14.793600638431705 -0.5926100508353435 5.949109708119916 15.276800663716964 -2.031229957270092 -5.7185101420224145 4.2542102184122985 26.70559910754839 -10.989700096243292 74.47039946410611 -21.331500400650224 -14.782199345159661 42.01149979222419 -30.245798852487304 -17.014901099924913 -72.62260106718587 20.373600520501785 -13.488200370106881 -39.59260195804252 5.601879966189392 -9.708179876804126 -3.5444099162319924 0.07748289991434774 24.858900371084534 -0.21002200705703777 0.9229559920244184 -1.6000800288851493 -12.18510016798506
